<svg data-v-0dd9719b="" version="1.0" xmlns="http://www.w3.org/2000/svg" xmlns:xlink="http://www.w3.org/1999/xlink" width="100%" height="100%" viewBox="0 0 340.000000 250.000000" preserveAspectRatio="xMidYMid meet" color-interpolation-filters="sRGB" style="margin: auto;"> <rect data-v-0dd9719b="" x="0" y="0" width="100%" height="100%" fill="#fff" fill-opacity="1" class="background"></rect> <rect data-v-0dd9719b="" x="0" y="0" width="100%" height="100%" fill="url(#watermark)" fill-opacity="1" class="watermarklayer"></rect> <g data-v-0dd9719b="" fill="#333" class="icon-text-wrapper icon-svg-group iconsvg" transform="translate(47.76000213623047,96.30375099182129)"><g class="iconsvg-imagesvg" transform="translate(0,2.715475082397461)"><g><rect fill="#333" fill-opacity="0" stroke-width="2" x="0" y="0" width="60" height="51.96154845414393" class="image-rect"></rect> <svg x="0" y="0" width="60" height="51.96154845414393" filtersec="colorsb8539032181" class="image-svg-svg primary" style="overflow: visible;"><svg xmlns="http://www.w3.org/2000/svg" viewBox="0 0 115.4699935913086 100"><g fill-rule="evenodd"><path d="M88.47 31.82a5.89 5.89 0 0 0 .45-2.27 6 6 0 1 0-6.37 5.94L98.83 63.7l-21 36.3h8.77l20.62-35.71zM28 43.46a6 6 0 0 0 5.31-8.66L49.05 7.56H91L86.6 0H45.37L27.12 31.61A6 6 0 0 0 28 43.46zM62.76 76.19a6 6 0 0 0-4.88 2.55H25.32l-21-36.3L0 50l20.62 35.71H58a6 6 0 1 0 4.77-9.52z" fill="#00a2e9"></path><path d="M94.85 14.29h-37a6 6 0 1 0 0 7h32.3l21 36.3 4.32-7.59zM87.18 56.23a6 6 0 0 0-5.08 9.06L66.42 92.44H24.5l4.37 7.56H70.1l18.49-32a6 6 0 0 0-1.41-11.75zM25.66 69.75a6 6 0 1 0 6.89-5.88L16.64 36.3 37.6 0h-8.73L8.25 35.71 26.32 67a6 6 0 0 0-.66 2.75z" fill="#096594"></path></g></svg></svg> <!----></g></g> <g transform="translate(67,0)"><g data-gra="path-name" fill-rule="" class="tp-name iconsvg-namesvg" transform="translate(0,0)"><g transform="scale(1)"><g><path d="M4.27-37.48L4.27-37.48 4.63-37.75Q10.75-37.17 12.29-34.24L12.29-34.24Q13.23-32.49 12.01-31.09L12.01-31.09Q10.75-29.7 8.78-30.46L8.78-30.46Q8.37-30.64 7.96-30.91L7.96-30.91Q7.29-34.2 4.27-37.48ZM1.08-27L1.08-27 1.44-27.31Q7.25-26.86 8.64-24.16L8.64-24.16Q9.54-22.5 8.32-21.2L8.32-21.2Q7.06-19.84 5.13-20.65L5.13-20.65Q4.81-20.84 4.46-21.06L4.46-21.06Q3.87-24.12 1.08-27ZM13.72-30.96L13.72-30.96 14.4-30.82Q10.08-14.76 9.54-12.15L9.54-12.15Q8.91-9.09 8.96-7.88L8.96-7.88Q8.96-6.93 9.86-4.46 10.75-1.98 10.66 0.27L10.66 0.27Q10.62 1.98 9.63 3.01 8.64 4.05 7.02 4.05L7.02 4.05Q5.13 4.05 4.68 1.67L4.68 1.67Q5.31-1.84 5.17-4.63L5.17-4.63Q5.04-7.47 4.27-7.96L4.27-7.96Q3.46-8.55 1.93-8.69L1.93-8.69 1.93-9.58 3.96-9.58Q4.5-9.58 4.68-9.72L4.68-9.72Q4.91-9.86 5.22-10.53L5.22-10.53Q6.12-12.24 13.72-30.96ZM24.12-23.36L24.12-23.36 24.57-23.63Q29.7-22.59 30.69-19.93L30.69-19.93Q31.27-18.31 30.11-17.37L30.11-17.37Q28.84-16.38 27.22-17.5L27.22-17.5Q26.68-20.25 24.12-23.36ZM23.54-13.5L23.54-13.5 23.94-13.77Q29.16-12.55 30.15-9.81L30.15-9.81Q30.73-8.05 29.47-7.06L29.47-7.06Q28.17-5.98 26.55-7.2L26.55-7.2Q26.14-10.35 23.54-13.5ZM19.53-5.58L19.53-5.58 32.94-5.58Q33.44-8.69 33.8-14.58L33.8-14.58 20.97-14.58Q20.07-8.59 19.53-5.58ZM34.16-25.15L34.16-25.15 22.41-25.15Q21.91-21.2 21.15-15.84L21.15-15.84 33.84-15.84Q34.02-19.04 34.16-25.15ZM43.2-14.58L43.2-14.58 38.61-14.58Q38.34-8.91 37.89-5.58L37.89-5.58 39.87-8.82Q42.21-6.52 43.52-5L43.52-5Q43.34-4.27 42.34-4.27L42.34-4.27 37.66-4.27Q36.9 0.45 35.28 2.07L35.28 2.07Q33.39 4 29.47 4L29.47 4Q29.56 1.84 28.8 1.03L28.8 1.03Q28.04 0 25.52-0.58L25.52-0.58 25.56-1.26Q27.63-0.99 29.92-0.99L29.92-0.99Q30.96-0.99 31.5-1.53L31.5-1.53Q32.22-2.16 32.67-4.27L32.67-4.27 14.67-4.27 14.67-5.89Q15.52-10.26 16.11-14.58L16.11-14.58 11.7-14.58 11.34-15.84 16.29-15.84Q17.01-21.06 17.41-25.15L17.41-25.15Q15.16-22.68 12.69-21.06L12.69-21.06 12.24-21.42Q14.49-24.3 16.34-28.98 18.18-33.66 19.04-38.12L19.04-38.12 24.43-36.18Q23.67-33.93 22.68-32.27L22.68-32.27 43.47-32.27 43.47-31 21.91-31Q21.2-29.79 19.98-28.17L19.98-28.17 23.63-26.41 38.92-26.41 38.92-24.34Q38.7-17.23 38.66-16.06L38.66-16.06 40.68-19.39Q43.11-16.92 44.37-15.3L44.37-15.3Q44.23-14.58 43.2-14.58ZM78.93-8.14L78.93-6.88 69.97-6.88 69.97 1.53Q69.93 1.67 69.48 1.89L69.48 1.89Q69.03 2.16 68 2.38 66.96 2.61 65.75 2.61L65.75 2.61 64.84 2.61 64.84-6.88 57.15-6.88 56.79-8.14 64.84-8.14 64.84-13.59 58.14-13.59 57.78-14.89 68.49-14.89Q69.7-18.63 70.52-22.72L70.52-22.72 74.79-21.02Q72.27-17.19 69.8-14.89L69.8-14.89 78.57-14.89 78.57-13.59 69.97-13.59 69.97-8.14 78.93-8.14ZM59.17-22.18L59.17-22.18 59.67-22.45Q64.84-21.29 65.7-18.54L65.7-18.54Q66.28-16.79 64.94-15.71L64.94-15.71Q63.54-14.49 61.78-15.66L61.78-15.66Q61.56-15.79 61.38-15.97L61.38-15.97Q61.34-19.17 59.17-22.18ZM70.2-31.68L88.38-31.68 88.38-30.42 70.2-30.42 70.2-24.48 85.23-24.48 85.23-1.93Q85.23 0.94 83.84 2.34L83.84 2.34Q82.48 3.73 78.16 4.14L78.16 4.14Q77.94 1.53 77.04 0.49L77.04 0.49Q75.69-0.85 72.94-1.26L72.94-1.26 72.94-1.89Q77.63-1.53 78.84-1.53L78.84-1.53Q79.78-1.53 79.78-2.48L79.78-2.48 79.78-23.22 55.84-23.22 55.84 2.21Q55.84 2.7 54.36 3.38 52.88 4.05 51.3 4.05L51.3 4.05 50.45 4.05 50.45-26.82 56.2-24.48 64.84-24.48 64.84-30.42 47.16-30.42 46.76-31.68 64.84-31.68 64.84-38.3 70.2-37.71 70.2-31.68ZM115.2-25.38L105.03-25.38 104.67-26.64 115.25-26.64Q115.38-28.48 115.47-37.89L115.47-37.89 121.09-37.3Q120.91-28.84 120.73-26.64L120.73-26.64 133.97-26.64 133.97-25.38 120.69-25.38Q120.38-22.14 119.92-20.07L119.92-20.07Q128.84-16.83 131.76-11.74L131.76-11.74Q133.51-8.73 132.39-6.71L132.39-6.71Q131.49-5.04 129.47-5.58L129.47-5.58Q128.79-5.76 128.12-6.21L128.12-6.21Q125.82-11.65 119.56-18.59L119.56-18.59Q118.17-13.77 114.8-10.48L114.8-10.48Q111.47-7.25 104.98-5.08L104.98-5.08 104.53-5.71Q110.11-9.09 112.41-13.68L112.41-13.68Q114.7-18.31 115.2-25.38L115.2-25.38ZM93.64-37.13L93.64-37.13 94.09-37.39Q101.07-35.59 102.96-31.72L102.96-31.72Q104.13-29.38 102.87-27.68L102.87-27.68Q101.7-26.1 99.67-26.86L99.67-26.86Q99.14-27.09 98.59-27.49L98.59-27.49Q97.56-31.99 93.64-37.13ZM102.83-21.82L102.83-6.43Q105.44-3.78 109.26-2.79L109.26-2.79Q113.13-1.84 120.19-1.84L120.19-1.84Q128.16-1.84 133.83-2.16L133.83-2.16 133.83-1.62Q132.34-1.26 131.44-0.04L131.44-0.04Q130.59 1.17 130.45 2.83L130.45 2.83 118.58 2.83Q112 2.83 108.45 1.08 104.89-0.67 102.06-4.95L102.06-4.95Q101.7-5.54 101.39-5.58L101.39-5.58 100.84-5.44Q100.44-5.04 100.39-4.95L100.39-4.95Q100.03-4.37 98.06-1.57L98.06-1.57Q96.12 1.17 95.22 2.61L95.22 2.61Q95.36 3.33 94.68 3.69L94.68 3.69 91.17-1.8Q92.39-2.48 97.65-5.63L97.65-5.63 97.65-20.56 91.98-20.56 91.71-21.82 102.83-21.82ZM147.6-27.4L147.6-31.68 136.8-31.68 136.49-32.94 147.6-32.94 147.6-38.2 152.73-37.62Q152.73-37.62 152.73-32.94L152.73-32.94 161.87-32.94 161.87-38.2 167.09-37.62 167.09-32.94 178.47-32.94 178.47-31.68 167.09-31.68 167.09-28.71Q167.09-28.48 166.5-28.21L166.5-28.21Q165.91-27.99 164.88-27.81 163.84-27.63 162.72-27.63L162.72-27.63 161.87-27.63 161.87-31.68 152.73-31.68 152.73-28.48Q152.73-28.26 152.15-27.99L152.15-27.99Q151.56-27.77 150.53-27.58L150.53-27.58Q149.53-27.4 148.41-27.4L148.41-27.4 147.6-27.4ZM169.38-19.17L169.38-19.17 169.02-19.44Q169.83-21.42 170.64-24.48L170.64-24.48 144.09-24.48Q144.36-22.05 143.55-20.29L143.55-20.29Q142.74-18.59 141.25-17.95L141.25-17.95Q140.09-17.32 138.78-17.77L138.78-17.77Q137.52-18.22 137.16-19.48L137.16-19.48Q136.89-20.7 137.47-21.64L137.47-21.64Q138.1-22.59 139.32-23.09L139.32-23.09Q140.63-23.63 141.57-25.02L141.57-25.02Q142.56-26.46 142.43-28.13L142.43-28.13 143.06-28.13Q143.55-26.95 143.87-25.79L143.87-25.79 176.53-25.79 176.53-23.36Q173.52-20.97 169.38-19.17ZM177.97-16.11L177.97-14.85 161.24-14.85Q163.71-10.98 168.39-8.19L168.39-8.19Q173.12-5.4 178.56-3.82L178.56-3.82 178.47-3.28Q175.41-2.75 174.33 1.13L174.33 1.13Q163.94-4.5 160.29-14.85L160.29-14.85 160.06-14.85 160.06 2.56Q160.06 2.92 158.58 3.46L158.58 3.46Q157.14 4 155.7 4L155.7 4 154.75 4 154.75-10.39Q148.37-2.38 136.89 1.93L136.89 1.93 136.49 1.35Q141.34-1.53 145.22-5.8L145.22-5.8Q149.09-10.13 151.34-14.85L151.34-14.85 138.19-14.85 137.84-16.11 154.75-16.11 154.75-23.31 160.06-22.63 160.06-16.11 177.97-16.11Z" transform="translate(-1.0800000429153442, 38.29999923706055)"></path></g> <!----> <!----> <!----> <!----> <!----> <!----> <!----></g></g> <g data-gra="path-slogan" fill-rule="" class="tp-slogan iconsvg-slogansvg" fill="#333" transform="translate(39.144996643066406,48.439998626708984)"><!----> <!----> <g transform="scale(1, 1)"><g transform="scale(1)"><path d="M2.06-5.06L6.56-5.06L6.56-8.58L7.73-8.58L7.73 0L6.56 0L6.56-3.98L2.06-3.98L2.06 0L0.89 0L0.89-8.58L2.06-8.58L2.06-5.06ZM15.19 0L14.34-2.48L10.88-2.48L9.98 0L8.81 0L12.05-8.58L13.36-8.58L16.45 0L15.19 0ZM12.61-7.31L11.25-3.52L13.92-3.52L12.66-7.31L12.61-7.31ZM17.67-8.58L18.84-8.58L18.84 0L17.67 0L17.67-8.58ZM22.22-8.58L26.53-1.64L26.53-8.58L27.66-8.58L27.66 0L26.34 0L21.98-6.94L21.94-6.94L21.94 0L20.81 0L20.81-8.58L22.22-8.58ZM35.11 0L34.27-2.48L30.80-2.48L29.91 0L28.73 0L31.97-8.58L33.28-8.58L36.38 0L35.11 0ZM32.53-7.31L31.17-3.52L33.84-3.52L32.58-7.31L32.53-7.31ZM38.81-8.58L43.13-1.64L43.13-8.58L44.25-8.58L44.25 0L42.94 0L38.58-6.94L38.53-6.94L38.53 0L37.41 0L37.41-8.58L38.81-8.58ZM52.88 0L49.41 0L49.41-8.58L52.92-8.58Q56.39-8.39 56.53-4.41L56.53-4.41Q56.34-0.09 52.88 0L52.88 0ZM52.73-7.64L50.58-7.64L50.58-0.98L52.83-0.98Q55.27-1.13 55.36-4.31L55.36-4.31Q55.31-7.55 52.73-7.64L52.73-7.64ZM63.66 0L62.81-2.48L59.34-2.48L58.45 0L57.28 0L60.52-8.58L61.83-8.58L64.92 0L63.66 0ZM61.08-7.31L59.72-3.52L62.39-3.52L61.13-7.31L61.08-7.31ZM70.08-3.70L67.27-3.70L67.27 0L66.09 0L66.09-8.58L70.08-8.58Q72.94-8.58 72.94-6.28L72.94-6.28Q72.94-4.88 71.72-4.22L71.72-4.22Q72.75-3.94 72.75-2.58L72.75-2.58L72.84-1.03Q72.80-0.38 73.27-0.19L73.27-0.19L73.27 0L71.81 0Q71.67-0.61 71.63-2.16L71.63-2.16Q71.67-3.70 70.08-3.70L70.08-3.70ZM70.17-7.64L67.27-7.64L67.27-4.69L69.98-4.69Q71.72-4.69 71.72-6.19L71.72-6.19Q71.72-7.64 70.17-7.64L70.17-7.64ZM81.38-4.27L81.38-4.27Q81.19-7.64 78.38-7.83L78.38-7.83Q75.52-7.69 75.38-4.27L75.38-4.27Q75.52-0.94 78.38-0.80L78.38-0.80Q81.19-0.98 81.38-4.27ZM82.55-4.27L82.55-4.27Q82.27 0 78.38 0.14L78.38 0.14Q74.44 0 74.16-4.27L74.16-4.27Q74.39-8.72 78.38-8.81L78.38-8.81Q82.27-8.67 82.55-4.27ZM85.31-8.58L89.63-1.64L89.63-8.58L90.75-8.58L90.75 0L89.44 0L85.08-6.94L85.03-6.94L85.03 0L83.91 0L83.91-8.58L85.31-8.58ZM98.95-3.61L96.33-3.61L96.33-4.59L100.08-4.59L100.08 0L99.33 0L99.05-1.08Q98.06 0.09 96.23 0.14L96.23 0.14Q94.50 0.14 93.56-0.75L93.56-0.75Q92.16-2.06 92.20-4.36L92.20-4.36Q92.53-8.63 96.28-8.81L96.28-8.81Q99.47-8.63 99.94-6L99.94-6L98.81-6Q98.34-7.78 96.23-7.83L96.23-7.83Q93.56-7.64 93.42-4.31L93.42-4.31Q93.42-0.75 96.28-0.75L96.28-0.75Q97.31-0.75 98.06-1.31L98.06-1.31Q99-2.06 98.95-3.61L98.95-3.61Z" transform="translate(-0.890625, 8.8125)"></path></g></g></g></g></g><defs v-gra="od"></defs></svg>